<svg width="32" height="32" viewBox="0 0 32 32" fill="none" xmlns="http://www.w3.org/2000/svg">
<g clip-path="url(#clip0)">
<path d="M24.2692 8.76875C23.8192 6.59375 22.5442 4.53744 20.688 3.3V2.53119C20.688 1.14375 19.5442 0 18.1568 0H13.8442C12.4567 0 11.313 1.14375 11.313 2.53119V3.3C9.45672 4.53744 8.18178 6.59375 7.73178 8.76869C7.37553 10.1 8.12547 10.6063 8.81922 10.3999C10.788 9.81869 13.3942 9.5375 16.0005 9.5375C18.6068 9.5375 21.2131 9.81869 23.1818 10.3999C23.9692 10.6063 24.6068 10.0251 24.2692 8.76875Z" fill="#272727"/>
<path d="M23.1813 10.3999C21.2126 9.81869 18.6063 9.5375 16 9.5375V0H18.1563C19.5438 0 20.6875 1.14375 20.6875 2.53119V3.3C22.5438 4.53744 23.8187 6.59375 24.2687 8.76869C24.6063 10.0251 23.9688 10.6063 23.1813 10.3999Z" fill="#131313"/>
<path d="M24.2687 8.76879C22.0374 8.03754 19.0187 7.6626 16 7.6626C12.9813 7.6626 9.96256 8.03754 7.73131 8.76879C4.50625 9.85629 3.8125 11.2813 3.8125 12.3125C3.8125 14.075 5.85631 15.5188 9.45625 16.325C9.7 16.3812 9.94375 16.4375 10.2062 16.475C10.75 16.5876 11.3125 16.1563 11.3125 15.5562V13.25H20.6875V15.5562C20.6875 16.2125 21.3251 16.625 21.7938 16.475C22.0562 16.4375 22.3 16.3812 22.5438 16.325C26.1437 15.5188 28.1875 14.075 28.1875 12.3125C28.1875 11.2813 27.4938 9.85629 24.2687 8.76879Z" fill="#414141"/>
<path d="M28.1875 12.3125C28.1875 14.075 26.1437 15.5188 22.5438 16.325C22.3 16.3812 22.0562 16.4375 21.7938 16.475C21.3251 16.625 20.6875 16.2125 20.6875 15.5562V13.25H16V7.6626C19.0187 7.6626 22.0374 8.03753 24.2687 8.76878C27.4938 9.85628 28.1875 11.2813 28.1875 12.3125Z" fill="#2E2E2E"/>
<path d="M27.4562 23.5626L27.0626 23.3563L25.3563 22.5126L24.4375 22.0438L23.9124 21.7813C23.2937 21.4626 22.5625 21.9501 22.5625 22.6251V23.0563L17.5937 26.3751H14.4062L9.4375 23.0563V22.6251C9.4375 21.9501 8.70625 21.4626 8.08756 21.7813L7.5625 22.0438L6.64375 22.5126L4.93744 23.3563L4.54375 23.5626C2.93125 24.3688 1.9375 25.9813 1.9375 27.7626V31.0626C1.9375 31.5876 2.34994 32.0001 2.875 32.0001H29.125C29.6501 32.0001 30.0625 31.5876 30.0625 31.0626V27.7626C30.0625 25.9813 29.0687 24.3688 27.4562 23.5626Z" fill="#131313"/>
<path d="M30.0625 27.7626V31.0626C30.0625 31.5876 29.6501 32.0001 29.125 32.0001H16V26.3751H17.5937L22.5625 23.0563V22.6251C22.5625 21.9501 23.2937 21.4626 23.9124 21.7813L24.4375 22.0438L25.3563 22.5126L27.0626 23.3563L27.4562 23.5626C29.0687 24.3688 30.0625 25.9813 30.0625 27.7626Z" fill="#272727"/>
<path d="M9.81256 32H7.82506L4.9375 23.3562L6.64381 22.5125L9.81256 32Z" fill="#FEDD00"/>
<path d="M27.0626 23.3562L24.175 32H22.1875L25.3563 22.5125L27.0626 23.3562Z" fill="#FFBC33"/>
<path d="M23.5 18.8751H20.1812C19.9562 18.8751 19.75 18.95 19.5812 19.0813C19.5438 19.1189 19.5062 19.1564 19.4687 19.1938C19.15 19.5876 18.7562 19.9063 18.3062 20.1313C18.0624 20.2814 17.8 20.3938 17.5375 20.4688C17.05 20.6376 16.825 21.3313 16.9375 21.6876C16.9375 22.2126 16.5251 22.6251 16 22.6251C14.6313 22.6251 15.4749 20.825 14.4625 20.4688C14.1813 20.3938 13.9188 20.2813 13.6751 20.1313C13.0187 19.7563 12.8688 19.5313 12.4189 19.0813C12.2501 18.95 12.0439 18.875 11.8189 18.875H8.5C7.97494 18.875 7.5625 19.2874 7.5625 19.8125V23.5625C7.5625 23.8812 7.71256 24.1625 7.97494 24.3499L13.5999 28.0999C13.75 28.1937 13.9376 28.2501 14.125 28.2501H17.875C18.0624 28.2501 18.25 28.1938 18.4001 28.1L24.0251 24.35C24.2874 24.1626 24.4375 23.8813 24.4375 23.5626V19.8126C24.4375 19.2875 24.0251 18.8751 23.5 18.8751Z" fill="#FEDD00"/>
<path d="M24.4375 19.8126V23.5626C24.4375 23.8813 24.2874 24.1626 24.0251 24.35L18.4001 28.1C18.25 28.1938 18.0624 28.2501 17.875 28.2501H16V22.6251C16.5251 22.6251 16.9375 22.2126 16.9375 21.6876C16.825 21.3313 17.05 20.6376 17.5375 20.4688C17.8 20.3938 18.0624 20.2813 18.3062 20.1313C18.7562 19.9063 19.1499 19.5876 19.4687 19.1938C19.5062 19.1563 19.5438 19.1188 19.5812 19.0813C19.75 18.95 19.9562 18.875 20.1812 18.875H23.5C24.0251 18.8751 24.4375 19.2875 24.4375 19.8126Z" fill="#FFBC33"/>
<path d="M16.9375 21.6126L16.9188 21.8C16.8626 22.2687 16.4688 22.625 16 22.625C15.5312 22.625 15.1374 22.2687 15.0813 21.8L15.0625 21.575C15.0813 21.4625 15.1374 21.3125 15.175 21.2563C15.4188 20.9001 15.6813 20.75 16 20.75C16.2999 20.75 16.5625 20.9001 16.7313 21.1438C16.8438 21.2937 16.8999 21.4812 16.9375 21.6126Z" fill="#BFC5D3"/>
<path d="M16.9375 21.6126L16.9188 21.8C16.8626 22.2687 16.4688 22.625 16 22.625V20.75C16.2999 20.75 16.5625 20.9001 16.7313 21.1438C16.8438 21.2937 16.8999 21.4812 16.9375 21.6126Z" fill="#B3BAC7"/>
<path d="M23.1089 14.6431H22.5928V12.0625H9.17338V14.6431H8.65725C8.08719 14.6431 7.625 15.1053 7.625 15.6754C7.625 16.2454 8.08719 16.7076 8.65725 16.7076H9.17338C9.17338 20.4133 12.1774 23.4173 15.8831 23.4173C19.5887 23.4173 22.5928 20.4133 22.5928 16.7076H23.1089C23.6789 16.7076 24.1411 16.2454 24.1411 15.6754C24.1411 15.1053 23.6789 14.6431 23.1089 14.6431Z" fill="#F5B97D"/>
<path d="M12.7866 16.1919C12.5013 16.1919 12.2705 15.9608 12.2705 15.6758V15.1597C12.2705 14.8747 12.5014 14.6436 12.7866 14.6436C13.0719 14.6436 13.3028 14.8747 13.3028 15.1597V15.6758C13.3028 15.9608 13.0719 16.1919 12.7866 16.1919Z" fill="#5A4650"/>
<path d="M18.9805 16.1919C18.6952 16.1919 18.4644 15.9608 18.4644 15.6758V15.1597C18.4644 14.8747 18.6952 14.6436 18.9805 14.6436C19.2658 14.6436 19.4966 14.8747 19.4966 15.1597V15.6758C19.4966 15.9608 19.2658 16.1919 18.9805 16.1919Z" fill="#5A4650"/>
<path d="M13.3023 14.1272H12.27C11.9847 14.1272 11.7539 13.8961 11.7539 13.6111C11.7539 13.3261 11.9848 13.095 12.27 13.095H13.3023C13.5876 13.095 13.8184 13.3261 13.8184 13.6111C13.8184 13.8961 13.5875 14.1272 13.3023 14.1272Z" fill="#6E5A64"/>
<path d="M15.8834 19.8047C15.1092 19.8047 14.3945 19.5562 13.9726 19.1399C13.7695 18.9398 13.7675 18.613 13.9675 18.4101C14.1676 18.207 14.4953 18.205 14.6973 18.405C14.8692 18.5747 15.283 18.7725 15.8833 18.7725C16.4836 18.7725 16.8975 18.5747 17.0693 18.405C17.2714 18.2049 17.5991 18.207 17.7991 18.4101C17.9993 18.613 17.9972 18.9399 17.7941 19.1399C17.3723 19.5562 16.6576 19.8047 15.8834 19.8047Z" fill="#B67F5F"/>
<path d="M19.4961 14.1272H18.4639C18.1786 14.1272 17.9478 13.8961 17.9478 13.6111C17.9478 13.3261 18.1786 13.095 18.4639 13.095H19.4961C19.7814 13.095 20.0123 13.3261 20.0123 13.6111C20.0123 13.8961 19.7814 14.1272 19.4961 14.1272Z" fill="#6E5A64"/>
</g>
<defs>
<clipPath id="clip0">
<rect width="32" height="32" fill="white"/>
</clipPath>
</defs>
</svg>
