<svg width="149" height="123" viewBox="0 0 149 123" fill="none" xmlns="http://www.w3.org/2000/svg">
<path d="M142.64 73.2983C143.162 72.2251 143.625 71.0961 144.025 69.9132C148.608 56.3762 141.677 40.1597 127.083 36.245C125.506 16.4116 111.581 2.80673 95.8543 0.484365C77.8542 -2.1725 61.3649 9.27207 55.8784 27.4625C49.2656 25.1175 42.8217 25.4032 36.7486 28.9556C33.9931 30.2308 31.4727 32.1124 29.2116 34.5881C25.8921 38.2224 23.7337 42.8096 22.8547 47.646C21.5527 47.8516 20.2733 48.0571 19.067 48.4892C12.0348 51.0137 7.59787 56.2089 6.38115 64.0349C5.62397 68.9079 7.15226 73.7687 8.00518 75.7321C11.3733 83.4937 19.1837 87.8928 27.1193 86.729C27.5144 86.6715 28.0889 86.8492 28.4283 87.1349C28.8478 99.5394 34.8652 110.51 43.8922 116.777C58.3762 126.833 77.0117 123.735 88.7681 109.946C93.8055 115.103 99.8003 117.608 106.843 116.698C113.846 115.794 119.283 111.927 123.25 105.637C125.083 106.13 126.82 106.841 128.617 107.038C135.653 107.808 141.365 105.008 145.557 98.6753C147.162 96.2519 148.68 93.1107 148.68 87.6053C148.68 81.9344 146.427 76.7653 142.64 73.2983Z" fill="#EDF1FA"/>
<path d="M117.731 20.5354H100.272C99.7918 20.5354 99.4019 20.1452 99.4019 19.6643C99.4019 19.1835 99.7918 18.7932 100.272 18.7932H117.731C118.211 18.7932 118.601 19.1835 118.601 19.6643C118.601 20.1452 118.213 20.5354 117.731 20.5354Z" fill="white"/>
<path d="M122.746 20.5354H120.23C119.75 20.5354 119.36 20.1452 119.36 19.6643C119.36 19.1835 119.75 18.7932 120.23 18.7932H122.746C123.226 18.7932 123.616 19.1835 123.616 19.6643C123.616 20.1452 123.228 20.5354 122.746 20.5354Z" fill="white"/>
<path d="M129.804 20.5354H125.373C124.892 20.5354 124.502 20.1452 124.502 19.6643C124.502 19.1835 124.892 18.7932 125.373 18.7932H129.804C130.285 18.7932 130.675 19.1835 130.675 19.6643C130.675 20.1452 130.285 20.5354 129.804 20.5354Z" fill="white"/>
<path d="M129.804 23.7847H113.066C112.585 23.7847 112.196 23.3944 112.196 22.9136C112.196 22.4327 112.585 22.0425 113.066 22.0425H129.804C130.284 22.0425 130.674 22.4327 130.674 22.9136C130.674 23.3944 130.284 23.7847 129.804 23.7847Z" fill="white"/>
<path d="M110.051 23.7847H109.041C108.561 23.7847 108.171 23.3944 108.171 22.9136C108.171 22.4327 108.561 22.0425 109.041 22.0425H110.051C110.531 22.0425 110.921 22.4327 110.921 22.9136C110.921 23.3944 110.533 23.7847 110.051 23.7847Z" fill="white"/>
<path d="M105.914 23.7847H103.379C102.899 23.7847 102.509 23.3944 102.509 22.9136C102.509 22.4327 102.899 22.0425 103.379 22.0425H105.914C106.394 22.0425 106.784 22.4327 106.784 22.9136C106.784 23.3944 106.396 23.7847 105.914 23.7847Z" fill="white"/>
<path d="M121.816 17.288H113.066C112.586 17.288 112.196 16.8977 112.196 16.4169C112.196 15.936 112.586 15.5458 113.066 15.5458H121.816C122.297 15.5458 122.687 15.936 122.687 16.4169C122.687 16.8977 122.299 17.288 121.816 17.288Z" fill="white"/>
<path d="M121.816 14.0387H119.628C119.148 14.0387 118.758 13.6485 118.758 13.1676C118.758 12.6868 119.148 12.2965 119.628 12.2965H121.816C122.297 12.2965 122.687 12.6868 122.687 13.1676C122.687 13.6485 122.299 14.0387 121.816 14.0387Z" fill="white"/>
<path d="M116.128 27.0338H113.066C112.586 27.0338 112.196 26.6436 112.196 26.1627C112.196 25.6819 112.586 25.2916 113.066 25.2916H116.128C116.608 25.2916 116.998 25.6819 116.998 26.1627C116.998 26.6436 116.608 27.0338 116.128 27.0338Z" fill="white"/>
<path d="M118.895 79.7602C118.895 79.7602 137.374 79.7602 137.487 79.7602C141.755 79.7602 145.214 76.2984 145.214 72.0265C145.214 68.2999 142.58 65.1901 139.075 64.4583C139.115 64.1325 139.143 63.8015 139.143 63.4653C139.143 59.0418 135.56 55.4546 131.141 55.4546C128.532 55.4546 126.22 56.7107 124.76 58.6446C124.385 53.7211 119.992 49.9213 114.85 50.5503C111.09 51.0102 107.98 53.9197 107.289 57.6463C107.068 58.8414 107.09 60.0018 107.311 61.0906C106.303 60.0035 104.869 59.3206 103.269 59.3206C100.345 59.3206 97.957 61.5994 97.769 64.4792C96.4409 64.1848 94.9962 64.204 93.4748 64.7754C90.5662 65.8678 88.4948 68.6083 88.3747 71.7146C88.2024 76.1277 91.7255 79.7584 96.0945 79.7584C96.427 79.7584 97.5932 79.7584 97.8613 79.7584H113.907" fill="white"/>
<path d="M137.487 80.6313H118.895C118.415 80.6313 118.025 80.241 118.025 79.7602C118.025 79.2793 118.415 78.8891 118.895 78.8891H137.487C141.268 78.8891 144.342 75.8089 144.342 72.0265C144.342 68.7965 142.053 65.9706 138.895 65.312C138.452 65.2197 138.154 64.8016 138.21 64.3503C138.246 64.0594 138.271 63.765 138.271 63.4653C138.271 59.5279 135.071 56.3257 131.137 56.3257C128.888 56.3257 126.817 57.3623 125.449 59.1707C125.231 59.4582 124.854 59.5837 124.511 59.4809C124.163 59.3781 123.915 59.0732 123.888 58.7125C123.726 56.5557 122.671 54.5312 120.995 53.1549C119.299 51.7646 117.149 51.1479 114.951 51.4179C111.564 51.8326 108.761 54.4598 108.14 57.8101C107.947 58.8571 107.954 59.9025 108.161 60.9199C108.237 61.3032 108.053 61.69 107.705 61.8677C107.362 62.0489 106.937 61.974 106.669 61.6865C105.776 60.7248 104.568 60.1952 103.266 60.1952C100.829 60.1952 98.7943 62.1046 98.6341 64.5402C98.6167 64.7946 98.4914 65.0281 98.2877 65.1814C98.0858 65.3347 97.8247 65.3852 97.5775 65.3347C96.2634 65.042 95.0205 65.1291 93.7777 65.5943C91.1702 66.5734 89.346 69.0491 89.2415 71.753C89.1667 73.6415 89.8456 75.4273 91.151 76.7862C92.4548 78.1434 94.2111 78.8926 96.0928 78.8926H113.905C114.385 78.8926 114.775 79.2828 114.775 79.7637C114.775 80.2445 114.385 80.6348 113.905 80.6348H96.0945C93.7359 80.6348 91.534 79.6975 89.8978 77.9936C88.2616 76.2914 87.4104 74.051 87.5026 71.685C87.6367 68.2895 89.9134 65.1866 93.1685 63.9636C94.4235 63.4914 95.715 63.3346 97.0345 63.4775C97.6646 60.5941 100.241 58.4512 103.269 58.4512C104.321 58.4512 105.348 58.7143 106.263 59.2038C106.27 58.6359 106.326 58.0644 106.434 57.493C107.193 53.404 110.61 50.1966 114.744 49.6896C117.424 49.3586 120.037 50.113 122.102 51.8099C123.666 53.0939 124.787 54.8431 125.317 56.7752C126.916 55.3675 128.963 54.587 131.143 54.587C136.036 54.587 140.016 58.5714 140.016 63.4688C140.016 63.5803 140.013 63.6918 140.009 63.8033C143.573 64.8974 146.086 68.2407 146.086 72.03C146.084 76.7706 142.227 80.6313 137.487 80.6313Z" fill="#131313"/>
<path d="M114.418 62.7248C111.56 62.5366 109.101 64.5123 108.923 67.1378C108.9 67.4636 108.916 67.7842 108.963 68.096C108.411 67.4723 107.595 67.0507 106.658 66.988C104.944 66.8747 103.463 68.0089 103.249 69.5508C102.937 69.4654 102.611 69.4079 102.274 69.3853C99.7724 69.2215 97.6192 70.9498 97.4661 73.246" fill="#FDFCEF"/>
<path d="M97.4661 73.6816C97.4556 73.6816 97.4469 73.6816 97.4365 73.6798C97.1963 73.6642 97.0152 73.4568 97.0327 73.2164C97.1963 70.793 99.3651 68.9393 101.947 68.9393C102.063 68.9393 102.183 68.9428 102.303 68.9515C102.505 68.9637 102.711 68.9898 102.918 69.0281C103.372 67.4985 104.944 66.4009 106.688 66.5542C107.343 66.596 107.957 66.7946 108.488 67.1274C108.488 67.1204 108.488 67.1134 108.49 67.1065C108.681 64.244 111.33 62.0663 114.448 62.2893C114.688 62.305 114.869 62.5123 114.852 62.7527C114.836 62.9931 114.678 63.2057 114.389 63.1569C114.274 63.1499 114.157 63.1464 114.042 63.1464C111.578 63.1464 109.51 64.8886 109.356 67.164C109.337 67.4497 109.35 67.7406 109.393 68.0281C109.423 68.2198 109.322 68.4079 109.148 68.4898C108.974 68.5682 108.763 68.5281 108.638 68.3835C108.133 67.8156 107.419 67.4741 106.629 67.4201C105.142 67.3661 103.863 68.2877 103.68 69.6083C103.661 69.732 103.591 69.8435 103.489 69.9132C103.386 69.9829 103.259 70.0038 103.135 69.9689C102.838 69.8888 102.538 69.8383 102.246 69.8174C99.9744 69.6971 98.0388 71.2216 97.8995 73.2722C97.8838 73.5039 97.6941 73.6816 97.4661 73.6816Z" fill="#472B29"/>
<path d="M140.615 65.3643C137.929 64.0977 134.824 64.9932 133.679 67.3678C133.536 67.6622 133.431 67.9671 133.362 68.2755" fill="#FCFDFF"/>
<path d="M133.362 68.711C133.329 68.711 133.297 68.7076 133.264 68.7006C133.031 68.6466 132.883 68.4131 132.937 68.1779C133.014 67.8399 133.13 67.5037 133.285 67.1814C134.533 64.5924 137.91 63.6081 140.8 64.9688C141.017 65.0733 141.111 65.3311 141.009 65.5489C140.904 65.7684 140.641 65.8556 140.429 65.758C137.962 64.5872 135.108 65.4008 134.07 67.5559C133.945 67.819 133.847 68.0943 133.787 68.3713C133.741 68.5717 133.56 68.711 133.362 68.711Z" fill="#472B29"/>
<path d="M79.7028 95.4312C99.5256 95.4312 115.595 79.3474 115.595 59.5069C115.595 39.6664 99.5256 23.5825 79.7028 23.5825C59.8801 23.5825 43.8105 39.6664 43.8105 59.5069C43.8105 79.3474 59.8801 95.4312 79.7028 95.4312Z" fill="white"/>
<path d="M79.7045 96.6508C59.2414 96.6508 42.5938 79.9883 42.5938 59.5069C42.5938 39.0255 59.2414 22.3647 79.7045 22.3647C100.168 22.3647 116.814 39.0255 116.814 59.5069C116.814 79.9883 100.168 96.6508 79.7045 96.6508ZM79.7045 24.8021C60.5851 24.8021 45.0307 40.3705 45.0307 59.5052C45.0307 78.6416 60.5851 94.21 79.7045 94.21C98.8221 94.21 114.377 78.6416 114.377 59.5052C114.377 40.3705 98.8221 24.8021 79.7045 24.8021Z" fill="#131313"/>
<path d="M79.7029 89.215C96.0956 89.215 109.385 75.9142 109.385 59.5069C109.385 43.0995 96.0956 29.7987 79.7029 29.7987C63.3102 29.7987 50.0212 43.0995 50.0212 59.5069C50.0212 75.9142 63.3102 89.215 79.7029 89.215Z" fill="#EE3E54"/>
<path d="M79.7046 89.9119C62.9543 89.9119 49.325 76.2704 49.325 59.5051C49.325 42.7399 62.9543 29.1001 79.7046 29.1001C96.4549 29.1001 110.082 42.7399 110.082 59.5051C110.082 76.2704 96.4549 89.9119 79.7046 89.9119ZM79.7046 30.4956C63.7202 30.4956 50.7192 43.5099 50.7192 59.5051C50.7192 75.5039 63.7219 88.5164 79.7046 88.5164C95.6873 88.5164 108.688 75.5021 108.688 59.5051C108.688 43.5099 95.6855 30.4956 79.7046 30.4956Z" fill="#131313"/>
<path d="M57.6747 97.3581C60.6512 97.3581 63.2344 97.3581 63.2709 97.3581C66.606 97.3581 69.3093 94.71 69.3093 91.4416C69.3093 88.5913 67.2518 86.2132 64.512 85.6522C64.5433 85.4031 64.566 85.1505 64.566 84.8926C64.566 81.5093 61.7653 78.7653 58.3118 78.7653C56.2718 78.7653 54.4667 79.7252 53.3248 81.2061C53.0324 77.4395 49.5981 74.5335 45.5789 75.0143C42.6407 75.3662 40.2107 77.591 39.6694 80.443C39.4953 81.3577 39.5145 82.2445 39.6868 83.0772C38.8983 82.2462 37.7773 81.7235 36.5293 81.7235C34.2438 81.7235 32.3778 83.4675 32.2298 85.6696C31.1924 85.4449 30.0627 85.4588 28.8739 85.8961C26.6006 86.7324 24.9817 88.8283 24.8878 91.2046C24.7537 94.5793 27.5057 97.3581 30.9226 97.3581C31.182 97.3581 32.0941 97.3581 32.3047 97.3581H44.8444H57.6747ZM47.4362 97.3581H48.0054Z" fill="white"/>
<path d="M63.2692 98.2293H57.673C57.1926 98.2293 56.8027 97.839 56.8027 97.3582C56.8027 96.8773 57.1926 96.4871 57.673 96.4871H63.2692C66.1204 96.4871 68.439 94.2239 68.439 91.4416C68.439 89.0687 66.714 86.992 64.3362 86.5059C63.8889 86.4136 63.5895 85.992 63.6469 85.539C63.6748 85.3282 63.6922 85.1122 63.6922 84.8927C63.6922 81.9936 61.2762 79.6347 58.3084 79.6347C56.6077 79.6347 55.0411 80.4012 54.0089 81.7375C53.7896 82.0232 53.4154 82.1382 53.0725 82.0407C52.7278 81.9361 52.4806 81.633 52.4545 81.2741C52.3309 79.6834 51.572 78.2392 50.317 77.2095C49.0237 76.1485 47.3788 75.6833 45.6799 75.8785C43.1107 76.1868 40.9906 78.1294 40.5206 80.6051C40.3744 81.3734 40.3796 82.1487 40.5345 82.8996C40.6146 83.2829 40.4301 83.6679 40.0854 83.8491C39.7425 84.0285 39.3178 83.9588 39.0498 83.6749C38.39 82.978 37.4919 82.5929 36.5241 82.5929C34.719 82.5929 33.2116 83.9693 33.0932 85.7254C33.0758 85.9798 32.9505 86.2115 32.7486 86.3631C32.5467 86.5147 32.2891 86.5739 32.0419 86.5181C31.0497 86.3091 30.1115 86.3683 29.1698 86.7133C27.2063 87.4345 25.833 89.2534 25.7546 91.2395C25.7007 92.6002 26.195 93.8964 27.1454 94.8895C28.1341 95.9191 29.4744 96.4853 30.9192 96.4853H44.8392C45.3196 96.4853 45.7095 96.8756 45.7095 97.3564C45.7095 97.8373 45.3196 98.2276 44.8392 98.2276H30.9192C29.0236 98.2276 27.1907 97.4523 25.8904 96.0968C24.6075 94.7588 23.9409 93.0114 24.014 91.1698C24.1219 88.4886 25.9531 86.0408 28.571 85.0773C29.5266 84.7271 30.5153 84.5947 31.5092 84.6784C32.0871 82.4692 34.1324 80.8507 36.5258 80.8507C37.2778 80.8507 38.0123 81.0145 38.686 81.3194C38.7051 80.9727 38.7451 80.626 38.8113 80.2793C39.4205 77.0666 42.1603 74.5457 45.4728 74.1484C47.6521 73.8819 49.7583 74.4969 51.4206 75.861C52.5833 76.8158 53.4171 78.0475 53.8558 79.4291C55.1056 78.4378 56.6582 77.8907 58.3084 77.8907C62.237 77.8907 65.4329 81.0319 65.4329 84.8909C65.4329 84.9258 65.4329 84.9589 65.4311 84.9937C68.2231 85.8997 70.1796 88.499 70.1796 91.4399C70.1796 95.1856 67.0795 98.2293 63.2692 98.2293ZM48.0054 98.2293H47.4362C46.9558 98.2293 46.5659 97.839 46.5659 97.3582C46.5659 96.8773 46.9558 96.4871 47.4362 96.4871H48.0054C48.4858 96.4871 48.8757 96.8773 48.8757 97.3582C48.8757 97.839 48.4858 98.2293 48.0054 98.2293Z" fill="#131313"/>
<path d="M60.5713 89.0095C60.54 89.0095 60.5087 89.006 60.4756 88.9991C60.2406 88.9468 60.0926 88.7133 60.1466 88.4781C60.2058 88.2133 60.298 87.9555 60.4164 87.7116C61.3842 85.7551 64.0492 85.0303 66.352 86.1C66.5714 86.2011 66.6671 86.4589 66.5644 86.6767C66.4634 86.8962 66.2023 86.9886 65.9882 86.8892C64.1014 86.0216 61.9551 86.5617 61.1962 88.0966C61.1074 88.2778 61.0396 88.4712 60.996 88.668C60.9491 88.8719 60.7698 89.0095 60.5713 89.0095Z" fill="#472B29"/>
<path d="M52.4163 98.2293H50.667C50.1865 98.2293 49.7966 97.839 49.7966 97.3582C49.7966 96.8773 50.1865 96.4871 50.667 96.4871H52.4163C52.8967 96.4871 53.2866 96.8773 53.2866 97.3582C53.2866 97.839 52.8967 98.2293 52.4163 98.2293Z" fill="#472B29"/>
<path d="M18.4648 62.9077H1.00607C0.525649 62.9077 0.135742 62.5175 0.135742 62.0366C0.135742 61.5558 0.525649 61.1655 1.00607 61.1655H18.4648C18.9452 61.1655 19.3352 61.5558 19.3352 62.0366C19.3352 62.5175 18.947 62.9077 18.4648 62.9077Z" fill="white"/>
<path d="M23.4813 62.9077H20.9643C20.4839 62.9077 20.094 62.5175 20.094 62.0366C20.094 61.5558 20.4839 61.1655 20.9643 61.1655H23.4813C23.9617 61.1655 24.3516 61.5558 24.3516 62.0366C24.3516 62.5175 23.9617 62.9077 23.4813 62.9077Z" fill="white"/>
<path d="M30.5381 62.9077H26.1064C25.626 62.9077 25.2361 62.5175 25.2361 62.0366C25.2361 61.5558 25.626 61.1655 26.1064 61.1655H30.5381C31.0185 61.1655 31.4084 61.5558 31.4084 62.0366C31.4084 62.5175 31.0185 62.9077 30.5381 62.9077Z" fill="white"/>
<path d="M30.5379 66.157H13.7998C13.3193 66.157 12.9294 65.7668 12.9294 65.2859C12.9294 64.8051 13.3193 64.4148 13.7998 64.4148H30.5379C31.0183 64.4148 31.4082 64.8051 31.4082 65.2859C31.4082 65.7668 31.0183 66.157 30.5379 66.157Z" fill="white"/>
<path d="M10.7849 66.157H9.77536C9.29494 66.157 8.90503 65.7668 8.90503 65.2859C8.90503 64.8051 9.29494 64.4148 9.77536 64.4148H10.7849C11.2654 64.4148 11.6553 64.8051 11.6553 65.2859C11.6553 65.7668 11.2654 66.157 10.7849 66.157Z" fill="white"/>
<path d="M6.6474 66.157H4.113C3.63258 66.157 3.24268 65.7668 3.24268 65.2859C3.24268 64.8051 3.63258 64.4148 4.113 64.4148H6.6474C7.12782 64.4148 7.51772 64.8051 7.51772 65.2859C7.51772 65.7668 7.12782 66.157 6.6474 66.157Z" fill="white"/>
<path d="M22.55 59.6586H13.7998C13.3193 59.6586 12.9294 59.2683 12.9294 58.7875C12.9294 58.3066 13.3193 57.9164 13.7998 57.9164H22.55C23.0305 57.9164 23.4204 58.3066 23.4204 58.7875C23.4204 59.2683 23.0305 59.6586 22.55 59.6586Z" fill="white"/>
<path d="M22.5503 56.4093H20.3623C19.8819 56.4093 19.4919 56.0191 19.4919 55.5382C19.4919 55.0574 19.8819 54.6671 20.3623 54.6671H22.5503C23.0307 54.6671 23.4206 55.0574 23.4206 55.5382C23.4206 56.0191 23.0307 56.4093 22.5503 56.4093Z" fill="white"/>
<path d="M16.8599 69.4063H13.7981C13.3176 69.4063 12.9277 69.016 12.9277 68.5352C12.9277 68.0543 13.3176 67.6641 13.7981 67.6641H16.8599C17.3403 67.6641 17.7302 68.0543 17.7302 68.5352C17.7302 69.016 17.342 69.4063 16.8599 69.4063Z" fill="white"/>
<g clip-path="url(#clip0)">
<path d="M91.155 51.9248L83.5801 59.5005L91.155 67.0757C92.2817 68.2029 92.2817 70.0287 91.155 71.1559C90.592 71.7188 89.8539 72.0005 89.1162 72.0005C88.3773 72.0005 87.6391 71.7193 87.0766 71.1559L79.5001 63.5797L71.9241 71.1558C71.3612 71.7188 70.6231 72.0005 69.8847 72.0005C69.1465 72.0005 68.4089 71.7192 67.8455 71.1558C66.7187 70.0291 66.7187 68.2032 67.8455 67.0757L75.4201 59.5004L67.845 51.9248C66.7183 50.7981 66.7183 48.9718 67.845 47.8451C68.9716 46.7193 70.7967 46.7193 71.9237 47.8451L79.5 55.4208L87.0757 47.8451C88.2029 46.7193 90.0283 46.7193 91.1546 47.8451C92.2817 48.9718 92.2817 50.7981 91.155 51.9248Z" fill="white"/>
</g>
<defs>
<clipPath id="clip0">
<rect width="25" height="25" fill="white" transform="translate(67 47)"/>
</clipPath>
</defs>
</svg>
